# xmcd CD database file
#
# Track frame offsets:
#	150
#	15695
#	35865
#	51205
#	65977
#	85552
#	103115
#	119795
#	131040
#	147580
#	161112
#	174717
#
# Disc length: 2517 seconds
#
# Revision: 0
# Processed by: cddbd v1.5.2PL0 Copyright (c) Steve Scherf et al.
# Submitted via: CDex 1.70beta2
#
DISCID=bc09d30c
DTITLE=Savana - Going For Broke
DYEAR=2002
DGENRE=Country
TTITLE0=Sketches In Blue
TTITLE1=Libra Nos
TTITLE2=You'll Never Know
TTITLE3=Going For Broke
TTITLE4=Rain in the Desert
TTITLE5=Gift Of Love
TTITLE6=Bayou Rhythm
TTITLE7=Once Upon A Time
TTITLE8=Queen of the Country Fiddle
TTITLE9=Love Poem
TTITLE10=Saints Go Marching In
TTITLE11=Mr Bones
EXTD=YEAR: 2002
EXTT0=
EXTT1=
EXTT2=
EXTT3=
EXTT4=
EXTT5=
EXTT6=
EXTT7=
EXTT8=
EXTT9=
EXTT10=
EXTT11=
PLAYORDER=
